<?xml version="1.0" encoding="UTF-8" standalone="no"?>
<!DOCTYPE svg PUBLIC "-//W3C//DTD SVG 1.1//EN" "http://www.w3.org/Graphics/SVG/1.1/DTD/svg11.dtd">
<!-- Created with Vectornator (http://vectornator.io/) -->
<svg height="24.0pt" stroke-miterlimit="10" style="fill-rule:nonzero;clip-rule:evenodd;stroke-linecap:round;stroke-linejoin:round;" version="1.1" viewBox="0 0 96 24" width="96.0pt" xml:space="preserve" xmlns="http://www.w3.org/2000/svg" xmlns:xlink="http://www.w3.org/1999/xlink">
<defs/>
<g id="layer1">
<g fill="#ffffff" opacity="1" stroke="none">
<path d="M7.80273 17.6396C6.61328 17.6396 5.55273 17.3687 4.62109 16.8267C3.68945 16.2847 2.95557 15.5098 2.41943 14.502C1.8833 13.4941 1.61523 12.293 1.61523 10.8984C1.61523 9.49219 1.8833 8.28516 2.41943 7.27734C2.95557 6.26953 3.69092 5.49463 4.62549 4.95264C5.56006 4.41064 6.61914 4.13965 7.80273 4.13965C8.56445 4.13965 9.27197 4.25098 9.92529 4.47363C10.5786 4.69629 11.1572 5.01563 11.6611 5.43164C12.165 5.84766 12.5796 6.3501 12.9048 6.93896C13.23 7.52783 13.4424 8.19141 13.542 8.92969L10.8174 8.92969C10.7412 8.54883 10.6167 8.20898 10.4438 7.91016C10.271 7.61133 10.0557 7.35938 9.79785 7.1543C9.54004 6.94922 9.24707 6.79248 8.91895 6.68408C8.59082 6.57568 8.2334 6.52148 7.84668 6.52148C7.12012 6.52148 6.49463 6.69873 5.97021 7.05322C5.4458 7.40771 5.04297 7.91162 4.76172 8.56494C4.48047 9.21826 4.33984 9.99609 4.33984 10.8984C4.33984 11.8008 4.48047 12.5771 4.76172 13.2275C5.04297 13.8779 5.4458 14.3789 5.97021 14.7305C6.49463 15.082 7.12012 15.2578 7.84668 15.2578C8.2334 15.2578 8.58936 15.2036 8.91455 15.0952C9.23975 14.9868 9.53125 14.8301 9.78906 14.625C10.0469 14.4199 10.2637 14.1694 10.4395 13.8735C10.6152 13.5776 10.7412 13.2422 10.8174 12.8672L13.542 12.8672C13.4482 13.5703 13.2432 14.2134 12.9268 14.7964C12.6104 15.3794 12.2002 15.8833 11.6963 16.3081C11.1924 16.7329 10.6123 17.061 9.95605 17.2925C9.2998 17.5239 8.58203 17.6396 7.80273 17.6396Z"/>
<path d="M17.9014 17.6045C17.2861 17.6045 16.7368 17.5005 16.2534 17.2925C15.77 17.0845 15.3892 16.771 15.1108 16.3521C14.8325 15.9331 14.6934 15.4131 14.6934 14.792C14.6934 14.2588 14.79 13.8164 14.9834 13.4648C15.1768 13.1133 15.4434 12.8306 15.7832 12.6167C16.123 12.4028 16.5127 12.2388 16.9521 12.1245C17.3916 12.0103 17.8516 11.9297 18.332 11.8828C18.9004 11.8301 19.353 11.7773 19.6899 11.7246C20.0269 11.6719 20.27 11.5942 20.4194 11.4917C20.5688 11.3892 20.6436 11.2383 20.6436 11.0391L20.6436 10.9863C20.6436 10.7402 20.5835 10.5293 20.4634 10.3535C20.3433 10.1777 20.1704 10.04 19.9448 9.94043C19.7192 9.84082 19.4453 9.79102 19.123 9.79102C18.8008 9.79102 18.5166 9.84082 18.2705 9.94043C18.0244 10.04 17.8296 10.1792 17.686 10.3579C17.5425 10.5366 17.4531 10.7432 17.418 10.9775L14.9834 10.8896C15.0537 10.2627 15.2646 9.72363 15.6162 9.27246C15.9678 8.82129 16.4453 8.47266 17.0488 8.22656C17.6523 7.98047 18.3643 7.85742 19.1846 7.85742C19.7939 7.85742 20.3477 7.92773 20.8457 8.06836C21.3438 8.20898 21.77 8.41553 22.1245 8.68799C22.479 8.96045 22.75 9.2959 22.9375 9.69434C23.125 10.0928 23.2188 10.5527 23.2188 11.0742L23.2188 17.4375L20.6963 17.4375L20.6963 16.1191L20.6523 16.1191C20.4883 16.418 20.2832 16.6787 20.0371 16.9014C19.791 17.124 19.4937 17.2969 19.145 17.4199C18.7964 17.543 18.3818 17.6045 17.9014 17.6045ZM18.6221 15.7939C19.0381 15.7939 19.3999 15.7163 19.7075 15.561C20.0151 15.4058 20.251 15.1934 20.415 14.9238C20.5791 14.6543 20.6611 14.3525 20.6611 14.0186L20.6611 13.0605C20.585 13.1016 20.4824 13.1411 20.3535 13.1792C20.2246 13.2173 20.0752 13.2539 19.9053 13.2891C19.7354 13.3242 19.5537 13.3579 19.3604 13.3901C19.167 13.4224 18.9736 13.4531 18.7803 13.4824C18.4814 13.5293 18.2104 13.6011 17.9673 13.6978C17.7241 13.7944 17.5322 13.9263 17.3916 14.0933C17.251 14.2603 17.1807 14.4697 17.1807 14.7217C17.1807 14.9443 17.2407 15.1362 17.3608 15.2974C17.481 15.4585 17.6494 15.5815 17.8662 15.6665C18.083 15.7515 18.335 15.7939 18.6221 15.7939Z"/>
<path d="M25.1523 17.4375L25.1523 8.0332L27.6572 8.0332L27.6572 9.65039L27.7012 9.65039C27.8711 9.07617 28.145 8.6499 28.5229 8.37158C28.9009 8.09326 29.3887 7.9541 29.9863 7.9541C30.1387 7.9541 30.2808 7.9585 30.4126 7.96729C30.5444 7.97607 30.6631 7.98633 30.7686 7.99805L30.7686 10.2305C30.6689 10.2188 30.5122 10.2056 30.2983 10.1909C30.0845 10.1763 29.8691 10.1689 29.6523 10.1689C29.2891 10.1689 28.9624 10.251 28.6724 10.415C28.3823 10.5791 28.1553 10.8179 27.9912 11.1313C27.8271 11.4448 27.7451 11.8301 27.7451 12.2871L27.7451 17.4375L25.1523 17.4375Z"/>
<path d="M35.4443 17.6221C34.6475 17.6221 33.9473 17.4229 33.3438 17.0244C32.7402 16.626 32.27 16.0605 31.9331 15.3281C31.5962 14.5957 31.4277 13.7314 31.4277 12.7354C31.4277 11.7451 31.5991 10.8853 31.9419 10.1558C32.2847 9.42627 32.7578 8.86084 33.3613 8.45947C33.9648 8.05811 34.6533 7.85742 35.4268 7.85742C35.8604 7.85742 36.2515 7.92041 36.6001 8.04639C36.9487 8.17236 37.2534 8.34961 37.5142 8.57812C37.7749 8.80664 37.9932 9.08203 38.1689 9.4043L38.2041 9.4043L38.2041 4.3418L40.7969 4.3418L40.7969 17.4375L38.2393 17.4375L38.2393 15.9785L38.2041 15.9785C38.0342 16.3184 37.8174 16.6113 37.5537 16.8574C37.29 17.1035 36.981 17.2925 36.6265 17.4243C36.272 17.5562 35.8779 17.6221 35.4443 17.6221ZM36.1387 15.5127C36.584 15.5127 36.9678 15.3984 37.29 15.1699C37.6123 14.9414 37.8628 14.6177 38.0415 14.1987C38.2202 13.7798 38.3096 13.2891 38.3096 12.7266C38.3096 12.1641 38.2202 11.6763 38.0415 11.2632C37.8628 10.8501 37.6123 10.5293 37.29 10.3008C36.9678 10.0723 36.584 9.95801 36.1387 9.95801C35.7168 9.95801 35.3491 10.0693 35.0356 10.292C34.7222 10.5146 34.4819 10.8325 34.3149 11.2456C34.1479 11.6587 34.0645 12.1523 34.0645 12.7266C34.0645 13.3066 34.1479 13.8047 34.3149 14.2207C34.4819 14.6367 34.7222 14.9561 35.0356 15.1787C35.3491 15.4014 35.7168 15.5127 36.1387 15.5127Z"/>
<path d="M42.7305 17.4375L42.7305 8.0332L45.2354 8.0332L45.2354 9.65039L45.2793 9.65039C45.4492 9.07617 45.7231 8.6499 46.1011 8.37158C46.479 8.09326 46.9668 7.9541 47.5645 7.9541C47.7168 7.9541 47.8589 7.9585 47.9907 7.96729C48.1226 7.97607 48.2412 7.98633 48.3467 7.99805L48.3467 10.2305C48.2471 10.2188 48.0903 10.2056 47.8765 10.1909C47.6626 10.1763 47.4473 10.1689 47.2305 10.1689C46.8672 10.1689 46.5405 10.251 46.2505 10.415C45.9604 10.5791 45.7334 10.8179 45.5693 11.1313C45.4053 11.4448 45.3232 11.8301 45.3232 12.2871L45.3232 17.4375L42.7305 17.4375Z"/>
<path d="M49.999 21.0674L50.1309 19.0283L51.124 19.0547C51.3643 19.0723 51.5649 19.0518 51.7261 18.9932C51.8872 18.9346 52.022 18.8291 52.1304 18.6768C52.2388 18.5244 52.3281 18.3193 52.3984 18.0615L52.6182 17.4199L49.0146 8.0332L51.748 8.0332L53.3301 12.7354C53.5117 13.2979 53.6802 13.8647 53.8354 14.436C53.9907 15.0073 54.1475 15.583 54.3057 16.1631L53.6025 16.1631C53.7549 15.583 53.9116 15.0073 54.0728 14.436C54.2339 13.8647 54.4082 13.2979 54.5957 12.7354L56.1865 8.0332L58.8936 8.0332L54.7891 18.8086C54.5957 19.3242 54.3584 19.7549 54.0771 20.1006C53.7959 20.4463 53.4619 20.7041 53.0752 20.874C52.6885 21.0439 52.2344 21.1289 51.7129 21.1289C51.4199 21.1289 51.1255 21.123 50.8296 21.1113C50.5337 21.0996 50.2568 21.085 49.999 21.0674Z"/>
</g>
<g opacity="1">
<path d="M67.2991 3.61163L87.2124 7.12287C88.2402 7.30411 88.9265 8.28425 88.7453 9.31208L86.9705 19.3773C86.7893 20.4051 85.8092 21.0914 84.7813 20.9102L64.8681 17.3989C63.8402 17.2177 63.1539 16.2376 63.3352 15.2097L65.1099 5.14453C65.2912 4.11669 66.2713 3.43039 67.2991 3.61163Z" fill="#1d1e22" fill-rule="nonzero" opacity="1" stroke="#ffffff" stroke-linecap="butt" stroke-linejoin="miter" stroke-width="2"/>
<path d="M64.8978 3.06151L85.1183 3.06151C86.162 3.06151 87.008 3.90759 87.008 4.95128L87.008 15.1717C87.008 16.2154 86.162 17.0615 85.1183 17.0615L64.8978 17.0615C63.8541 17.0615 63.008 16.2154 63.008 15.1717L63.008 4.95128C63.008 3.90759 63.8541 3.06151 64.8978 3.06151Z" fill="#1d1e22" fill-rule="nonzero" opacity="1" stroke="#ffffff" stroke-linecap="butt" stroke-linejoin="miter" stroke-width="2"/>
<path d="M70.008 7.06151C69.4557 7.06151 69.008 7.50923 69.008 8.06151C69.008 8.6138 69.4557 9.06151 70.008 9.06151L82.008 9.06151C82.5603 9.06151 83.008 8.6138 83.008 8.06151C83.008 7.50923 82.5603 7.06151 82.008 7.06151L70.008 7.06151Z" fill="#4192ee" fill-rule="nonzero" opacity="1" stroke="none"/>
<path d="M68.008 11.0615C67.4557 11.0615 67.008 11.5092 67.008 12.0615C67.008 12.6138 67.4557 13.0615 68.008 13.0615L80.008 13.0615C80.5603 13.0615 81.008 12.6138 81.008 12.0615C81.008 11.5092 80.5603 11.0615 80.008 11.0615L68.008 11.0615Z" fill="#4192ee" fill-rule="nonzero" opacity="1" stroke="none"/>
</g>
</g>
</svg>
